<?xml version="1.0" standalone="no"?>
<!DOCTYPE svg PUBLIC "-//W3C//DTD SVG 20010904//EN"
 "http://www.w3.org/TR/2001/REC-SVG-20010904/DTD/svg10.dtd">
<svg version="1.0" xmlns="http://www.w3.org/2000/svg"
 width="293.000000pt" height="293.000000pt" viewBox="0 0 293.000000 293.000000"
 preserveAspectRatio="xMidYMid meet">

<g transform="translate(0.000000,293.000000) scale(0.100000,-0.100000)"
fill="#000000" stroke="none">
<path d="M1889 2461 c-25 -10 -60 -29 -79 -42 -73 -53 -153 -218 -191 -393
-13 -60 -26 -94 -37 -100 -50 -28 -125 -115 -160 -185 -35 -71 -37 -80 -37
-170 0 -53 4 -111 8 -129 l9 -32 -673 0 c-423 0 -676 -3 -682 -9 -10 -10 245
-825 264 -845 5 -6 9 -18 9 -28 0 -11 11 -30 25 -43 l24 -25 676 0 c671 0 676
0 718 21 23 12 111 62 196 111 l153 90 63 -17 c192 -52 395 28 475 188 l31 62
92 5 c84 5 92 7 92 25 0 14 -8 21 -29 25 -24 4 -31 14 -51 67 -24 66 -65 134
-118 197 l-33 39 35 70 c33 65 36 76 39 176 2 90 -1 116 -21 171 l-23 64 22
76 c27 91 49 257 41 306 -10 58 -52 137 -98 182 -88 86 -226 107 -335 52 -32
-16 -61 -30 -64 -30 -3 0 -11 14 -18 30 -16 36 -68 77 -119 96 -53 19 -149 16
-204 -5z m194 -55 c49 -20 87 -70 87 -114 0 -20 -27 -114 -61 -208 -33 -95
-59 -183 -57 -196 4 -29 42 -37 53 -11 4 10 36 98 70 197 37 101 74 189 87
204 57 62 178 81 263 41 50 -24 100 -76 121 -125 29 -69 12 -267 -33 -394 -16
-46 -16 -49 7 -101 17 -38 25 -79 28 -141 5 -100 -11 -165 -59 -236 -16 -24
-29 -49 -29 -57 0 -7 24 -38 54 -68 49 -48 102 -134 120 -194 6 -20 4 -23 -17
-23 -19 0 -26 6 -30 30 -5 21 -12 30 -26 30 -26 0 -41 -28 -41 -75 0 -75 -77
-177 -168 -224 -56 -28 -152 -42 -214 -31 -104 20 -182 82 -213 171 -19 52
-19 83 0 146 41 139 231 240 384 205 53 -13 71 -7 71 23 0 27 -15 34 -90 45
-165 24 -342 -69 -411 -215 -16 -33 -29 -70 -29 -82 0 -23 0 -23 -168 -23
l-169 0 -36 117 c-20 64 -35 118 -33 120 2 2 19 -5 38 -17 75 -44 97 17 23 63
-58 37 -102 88 -134 157 -35 76 -37 211 -3 284 31 67 83 129 141 166 46 30 48
34 60 98 28 154 88 304 151 376 61 69 179 97 263 62z m-539 -1429 c65 -202
117 -368 115 -370 -2 -1 -296 -1 -654 1 l-650 3 -114 352 c-63 194 -116 360
-119 370 -4 16 30 17 649 15 l653 -3 120 -368z m434 -162 c7 -14 12 -30 12
-34 0 -9 -236 -151 -250 -151 -8 0 -70 174 -70 198 0 9 37 12 148 12 l149 0
11 -25z m-438 -289 c8 -2 -247 -4 -567 -5 -321 0 -583 3 -583 7 0 8 1114 5
1150 -2z"/>
<path d="M1703 1608 c-22 -29 -23 -38 -3 -58 11 -11 24 -20 29 -20 14 0 41 30
41 45 0 17 -27 45 -44 45 -8 0 -18 -6 -23 -12z"/>
<path d="M2075 1567 c-21 -16 -15 -61 11 -71 39 -15 73 41 42 72 -16 16 -30
15 -53 -1z"/>
</g>
</svg>
